<svg width="36" height="20" viewBox="0 0 36 20" fill="none" xmlns="http://www.w3.org/2000/svg" xmlns:xlink="http://www.w3.org/1999/xlink">
<path d="M34,0L32,0C30.895,0 30,0.839 30,1.875L30,18.125C30,19.161 30.895,20 32,20L34,20C35.105,20 36,19.161 36,18.125L36,1.875C36,0.839 35.105,0 34,0ZM22,4L24,4C25.105,4 26,4.86 26,5.92L26,18.08C26,19.14 25.105,20 24,20L22,20C20.896,20 20,19.14 20,18.08L20,5.92C20,4.86 20.896,4 22,4ZM14,8L12,8C10.895,8 10,8.895 10,10L10,18C10,19.105 10.895,20 12,20L14,20C15.105,20 16,19.105 16,18L16,10C16,8.895 15.105,8 14,8ZM4,12L2,12C0.895,12 0,12.895 0,14L0,18C0,19.105 0.895,20 2,20L4,20C5.105,20 6,19.105 6,18L6,14C6,12.895 5.105,12 4,12Z" clip-rule="evenodd" fill-rule="evenodd" fill="#FFFFFF"/>
</svg>
