<svg width="34" height="40" viewBox="0 0 34 40" fill="none" xmlns="http://www.w3.org/2000/svg" xmlns:xlink="http://www.w3.org/1999/xlink">
<path d="M27.891,4.844L19.684,4.844L19.684,0.927L34,0.927L34,16.593L30.421,16.593L30.421,7.613L24.092,14.538C26.156,17.5 27.116,21.21 26.775,24.916C26.434,28.623 24.819,32.049 22.256,34.501C19.693,36.953 16.375,38.248 12.973,38.124C9.57,37.999 6.338,36.464 3.931,33.83C1.524,31.196 0.121,27.66 0.008,23.937C-0.106,20.214 1.077,16.582 3.318,13.778C5.559,10.974 8.69,9.207 12.077,8.834C15.465,8.461 18.855,9.51 21.561,11.77L27.891,4.844Z" fill="url(#pf_0_3205_4592)"/>
<defs>
<linearGradient id="pf_0_3205_4592" x1="-3.2" y1="-6.449" x2="31.4" y2="47.754" gradientUnits="userSpaceOnUse">
<stop stop-color="#9DFE00"/>
<stop offset="1" stop-color="#14D9E5"/>
</linearGradient>
</defs>
</svg>
