<svg width="46" height="40" viewBox="0 0 46 40" fill="none" xmlns="http://www.w3.org/2000/svg" xmlns:xlink="http://www.w3.org/1999/xlink">
<path d="M42.108,7.742L40.172,7.742L40.172,5.806C40.172,4.739 39.304,3.871 38.237,3.871L36.301,3.871L36.301,1.935C36.301,0.868 35.433,0 34.366,0L9.677,0C8.61,0 7.742,0.868 7.742,1.935L7.742,3.871L5.806,3.871C4.739,3.871 3.871,4.739 3.871,5.806L3.871,7.742L1.935,7.742C0.868,7.742 0,8.61 0,9.677L0,38.065C0,39.132 0.868,40 1.935,40L36.301,40L36.301,38.71L1.935,38.71C1.58,38.71 1.29,38.42 1.29,38.065L1.29,9.677C1.29,9.322 1.58,9.032 1.935,9.032L42.108,9.032C42.463,9.032 42.753,9.322 42.753,9.677L42.753,38.065C42.753,38.42 42.463,38.71 42.108,38.71L40.172,38.71L40.172,40L42.108,40C43.175,40 44.043,39.132 44.043,38.065L44.043,9.677C44.043,8.61 43.175,7.742 42.108,7.742ZM5.161,5.806C5.161,5.451 5.451,5.161 5.806,5.161L10.968,5.161L10.968,3.871L9.032,3.871L9.032,1.935C9.032,1.58 9.322,1.29 9.677,1.29L34.366,1.29C34.721,1.29 35.011,1.58 35.011,1.935L35.011,3.871L12.258,3.871L12.258,5.161L38.237,5.161C38.592,5.161 38.882,5.451 38.882,5.806L38.882,7.742L5.161,7.742L5.161,5.806Z" fill="#FFFFFF"/>
<rect  x="37.591" y="38.71" width="1.29" height="1.29" fill="#FFFFFF"/>
<path d="M18.836,28.803L27.367,23.928L18.836,19.053L18.836,28.803ZM20.126,21.276L24.767,23.928L20.126,26.58L20.126,21.276Z" fill="#FFFFFF"/>
<path d="M12.344,23.871C12.344,29.207 16.685,33.548 22.022,33.548C27.358,33.548 31.699,29.207 31.699,23.871C31.699,18.535 27.358,14.193 22.022,14.193C16.685,14.193 12.344,18.535 12.344,23.871ZM30.409,23.871C30.409,28.496 26.646,32.258 22.022,32.258C17.397,32.258 13.634,28.496 13.634,23.871C13.634,19.246 17.397,15.484 22.022,15.484C26.646,15.484 30.409,19.246 30.409,23.871Z" fill="#FFFFFF"/>
<rect  x="40.172" y="10.323" width="1.29" height="1.29" fill="#FFFFFF"/>
<rect  x="40.172" y="12.903" width="1.29" height="1.29" fill="#FFFFFF"/>
</svg>
