<svg width="2530" height="2626" viewBox="0 0 2530 2626" fill="none" xmlns="http://www.w3.org/2000/svg" xmlns:xlink="http://www.w3.org/1999/xlink">
<g opacity="0.12">
<path d="M1014.909,2600.317C331.063,2463.897 -114.07,1793.851 24.27,1109.835C160.647,425.819 830.309,-19.424 1514.155,118.95C2198.003,255.361 2643.143,925.407 2504.783,1609.423C2366.443,2293.437 1698.537,2738.677 1014.691,2600.317M1490.153,231.353C868.495,106.946 258.837,512.249 134.462,1134.061C10.087,1755.873 415.289,2365.677 1036.947,2490.097C1658.605,2614.497 2268.263,2209.197 2392.643,1587.379C2517.003,965.567 2111.803,355.759 1490.153,231.353Z" fill="#BDBDBD"/>
<path d="M2017.548,1064.437C2053.552,1155.232 2073.626,1252.138 2075.808,1350.79L1696.79,1275.71L2017.766,1064.437M2051.806,898.562C2041.768,898.562 2031.732,900.526 2023.658,906.419L1462.223,1273.746C1424.038,1299.5 1436.257,1356.682 1480.334,1364.54L2140.178,1494.838C2144.106,1494.838 2146.286,1496.804 2150.214,1496.804C2176.18,1496.804 2198.438,1477.16 2200.402,1451.406C2218.512,1263.706 2180.326,1082.116 2094.136,924.098C2088.028,908.384 2070.134,898.344 2052.024,898.344Z" fill="#BDBDBD"/>
<path d="M2284.407,302.066C2170.069,163.911 2013.619,57.183 1831.202,1.964C1823.128,0 1819.201,0 1815.055,0C1791.053,0 1769.014,15.714 1764.868,39.504L1632.42,691.218C1626.31,724.83 1652.494,750.366 1682.606,750.366C1692.643,750.366 1702.681,748.402 1710.754,742.508L2272.189,375.182C2298.155,359.468 2302.301,323.892 2284.189,302.066L2284.407,302.066Z" fill="#BDBDBD"/>
<path d="M1253.621,560.92L1177.469,934.139L962.977,618.103C1057.239,580.563 1155.431,560.92 1253.839,560.92M1263.877,430.621C1107.427,430.621 957.085,470.125 822.673,539.312C796.707,553.062 786.669,586.674 804.562,612.428L1177.469,1165.273C1187.507,1180.987 1203.435,1187.097 1219.583,1187.097C1241.621,1187.097 1263.659,1173.347 1269.769,1147.593L1402.217,495.879C1408.327,466.196 1388.253,438.696 1358.141,436.732C1324.101,432.803 1293.989,430.839 1263.877,430.839Z" fill="#BDBDBD"/>
<path d="M681.933,801.656L896.425,1119.657L517.408,1044.577C555.594,953.781 611.673,870.845 681.933,801.656ZM698.081,629.889C686.079,629.889 676.041,633.817 666.005,641.674C525.7,754.295 417.253,908.165 361.175,1088.009C353.102,1115.727 371.213,1147.157 399.361,1151.303L1061.169,1281.603C1065.097,1281.603 1069.243,1283.567 1071.207,1283.567C1109.391,1283.567 1135.357,1240.133 1113.319,1204.559L740.411,651.714C730.375,637.964 714.445,629.889 698.299,629.889Z" fill="#BDBDBD"/>
<path d="M451.293,1370.432L830.309,1445.512L507.371,1654.82C471.367,1564.026 451.293,1467.12 451.293,1370.432M375.14,1224.2C349.174,1224.2 326.917,1243.843 324.954,1269.597C306.843,1457.298 345.028,1638.888 431.218,1796.904C441.255,1814.584 457.184,1824.624 477.259,1824.624C487.296,1824.624 497.333,1822.66 505.407,1816.766L1066.841,1449.44C1105.027,1423.687 1092.807,1366.503 1048.731,1358.646L386.923,1228.347C380.813,1224.418 376.886,1224.418 374.922,1224.418Z" fill="#BDBDBD"/>
<path d="M1016.872,1722.044L940.72,2095.262C848.42,2055.758 766.158,2000.54 694.151,1933.316L1017.09,1722.044M1133.392,1498.986C1123.354,1498.986 1113.318,1500.95 1105.244,1506.843L543.81,1874.168C517.844,1889.884 513.698,1925.46 531.809,1947.284C646.147,2085.442 802.598,2192.168 985.014,2247.388C988.942,2249.352 995.052,2249.352 998.98,2249.352C1022.982,2249.352 1045.02,2233.638 1049.166,2207.882L1181.614,1556.169C1191.652,1526.486 1163.504,1498.986 1133.392,1498.986Z" fill="#BDBDBD"/>
<path d="M1347.886,1787.082L1562.378,2103.118C1470.078,2138.694 1371.888,2158.338 1271.514,2160.302L1347.666,1787.082M1307.517,1534.342C1285.479,1534.342 1263.44,1548.092 1257.331,1573.846L1124.882,2225.56C1118.772,2255.244 1138.847,2282.744 1168.959,2284.708C1201.035,2288.636 1231.147,2288.636 1263.222,2288.636C1419.674,2288.636 1571.978,2249.132 1704.428,2179.944C1730.394,2166.194 1740.43,2132.582 1722.538,2106.828L1349.63,1553.985C1339.594,1542.199 1323.664,1534.342 1307.517,1534.342Z" fill="#BDBDBD"/>
<path d="M1630.457,1603.531L2009.473,1678.612C1969.325,1769.406 1915.211,1850.378 1844.949,1919.566L1630.457,1603.531M1455.894,1437.656C1417.709,1437.656 1391.743,1481.089 1413.781,1516.665L1786.689,2069.508C1796.727,2083.258 1812.655,2091.334 1828.803,2091.334C1840.803,2091.334 1850.841,2087.406 1860.879,2079.548C2001.183,1966.928 2109.629,1813.058 2165.707,1633.214C2173.781,1605.495 2155.669,1574.066 2127.521,1569.919L1465.714,1439.62C1461.786,1437.656 1457.64,1437.656 1455.676,1437.656Z" fill="#BDBDBD"/>
</g>
</svg>
