<svg width="186" height="192" viewBox="0 0 186 192" fill="none" xmlns="http://www.w3.org/2000/svg" xmlns:xlink="http://www.w3.org/1999/xlink">
<path d="M74.006,190.142C24.201,180.209 -8.241,131.403 1.835,81.596C11.767,31.79 60.572,-0.653 110.378,9.423C160.183,19.356 192.624,68.162 182.549,117.969C172.474,167.847 123.812,200.289 74.006,190.142ZM108.663,17.641C63.359,8.566 18.984,38.078 9.909,83.383C0.834,128.687 30.346,173.063 75.65,182.138C120.953,191.214 165.328,161.701 174.403,116.396C183.407,71.092 153.895,26.716 108.663,17.641Z" fill="#223242"/>
<path d="M147.036,78.309C149.68,84.955 151.109,91.958 151.252,99.175L123.669,93.744L147.036,78.309ZM149.537,66.233C148.823,66.233 148.108,66.376 147.465,66.805L106.591,93.53C103.804,95.388 104.661,99.604 107.877,100.176L155.969,109.68C156.254,109.68 156.397,109.823 156.683,109.823C158.613,109.823 160.185,108.393 160.328,106.535C161.614,92.887 158.898,79.667 152.61,68.162C152.181,66.947 150.824,66.233 149.537,66.233Z" fill="#223242"/>
<path d="M166.473,22.786C158.183,12.71 146.75,4.993 133.459,0.919C132.887,0.777 132.601,0.777 132.315,0.777C130.529,0.777 128.957,1.92 128.671,3.635L119.024,51.083C118.595,53.513 120.453,55.371 122.668,55.371C123.383,55.371 124.098,55.228 124.741,54.799L165.615,28.145C167.473,27.002 167.83,24.358 166.473,22.786Z" fill="#223242"/>
<path d="M91.371,41.651L85.797,68.805L70.148,45.795C77.079,43.08 84.225,41.651 91.371,41.651ZM92.157,32.147C80.795,32.147 69.79,35.005 60.001,40.079C58.071,41.079 57.357,43.509 58.714,45.367L85.869,85.669C86.583,86.813 87.798,87.241 88.941,87.241C90.513,87.241 92.157,86.241 92.586,84.383L102.233,36.935C102.661,34.791 101.232,32.79 99.017,32.647C96.516,32.29 94.301,32.147 92.157,32.147Z" fill="#223242"/>
<path d="M49.783,59.158L65.432,82.311L37.849,76.88C40.565,70.234 44.638,64.232 49.783,59.158ZM50.926,46.653C50.069,46.653 49.354,46.939 48.568,47.51C38.35,55.728 30.418,66.947 26.345,80.024C25.773,82.025 27.059,84.311 29.131,84.597L77.366,94.101C77.652,94.101 77.938,94.244 78.081,94.244C80.867,94.244 82.725,91.1 81.153,88.456L53.999,48.153C53.284,47.225 52.07,46.653 50.926,46.653Z" fill="#223242"/>
<path d="M32.99,100.604L60.573,106.035L37.064,121.256C34.42,114.681 32.99,107.678 32.99,100.604ZM27.417,89.957C25.487,89.957 23.915,91.386 23.772,93.244C22.486,106.892 25.202,120.112 31.49,131.617C32.204,132.903 33.419,133.618 34.848,133.618C35.563,133.618 36.278,133.475 36.921,133.046L77.795,106.321C80.582,104.463 79.724,100.247 76.509,99.675L28.274,90.171C27.845,89.957 27.56,89.957 27.417,89.957Z" fill="#223242"/>
<path d="M74.15,126.186L68.576,153.341C61.859,150.482 55.857,146.409 50.64,141.55L74.15,126.186ZM82.653,109.965C81.939,109.965 81.224,110.108 80.581,110.537L39.707,137.263C37.778,138.406 37.492,140.978 38.849,142.551C47.21,152.626 58.572,160.415 71.863,164.417C72.149,164.56 72.578,164.56 72.864,164.56C74.65,164.56 76.222,163.416 76.508,161.558L86.155,114.11C86.87,111.966 84.797,109.965 82.653,109.965Z" fill="#223242"/>
<path d="M98.231,130.974L113.88,153.984C107.163,156.556 100.017,157.986 92.728,158.129L98.231,130.974ZM95.301,112.538C93.729,112.538 92.085,113.538 91.657,115.396L82.01,162.845C81.581,164.989 83.01,166.989 85.225,167.132C87.583,167.418 89.727,167.418 92.085,167.418C103.447,167.418 114.595,164.56 124.242,159.486C126.171,158.486 126.886,156.056 125.528,154.198L98.374,113.896C97.659,113.11 96.516,112.538 95.301,112.538Z" fill="#223242"/>
<path d="M118.882,117.611L146.465,123.042C143.535,129.688 139.605,135.547 134.46,140.621L118.882,117.611ZM106.162,105.463C103.375,105.463 101.517,108.607 103.089,111.251L130.244,151.554C130.958,152.555 132.173,153.126 133.316,153.126C134.174,153.126 134.889,152.84 135.675,152.269C145.893,144.051 153.825,132.832 157.898,119.755C158.47,117.754 157.184,115.468 155.111,115.182L106.877,105.678C106.591,105.463 106.305,105.463 106.162,105.463Z" fill="#223242"/>
</svg>
