<svg width="38" height="34" viewBox="0 0 38 34" fill="none" xmlns="http://www.w3.org/2000/svg" xmlns:xlink="http://www.w3.org/1999/xlink">
<path d="M17.953,32.667C7.848,32.667 -0.342,25.205 -0.342,16C-0.342,6.795 7.848,-0.667 17.953,-0.667C28.057,-0.667 36.248,6.795 36.248,16C36.248,25.205 28.057,32.667 17.953,32.667ZM29.579,22.587L29.579,22.412C29.579,20.875 29.579,20.173 28.386,19.552C28.003,19.354 27.609,19.173 27.206,19.01C26.535,18.732 26.09,18.55 25.49,17.75C25.419,17.655 25.348,17.559 25.278,17.463C24.647,16.588 24.191,15.958 22.457,16.208C19.045,16.702 18.792,17.248 18.642,18.172L18.619,18.323C18.397,19.673 18.357,20.127 18.975,20.718C21.29,22.93 22.677,24.525 23.097,25.458C23.302,25.913 23.829,27.292 23.467,28.655C25.688,27.849 27.664,26.571 29.232,24.927C29.433,24.303 29.579,23.527 29.579,22.587L29.579,22.587ZM17.953,2.388C13.714,2.388 9.885,3.998 7.166,6.582C7.49,6.787 7.772,7.075 7.965,7.472C8.339,8.233 8.339,9.018 8.339,9.713C8.339,10.26 8.339,10.78 8.531,11.155C8.794,11.668 9.932,11.888 10.937,12.078C11.297,12.148 11.667,12.218 12.003,12.303C12.929,12.537 13.646,13.295 14.219,13.903C14.457,14.155 14.81,14.527 14.987,14.62C15.079,14.56 15.373,14.268 15.518,13.79C15.631,13.423 15.598,13.1 15.435,12.923C14.411,11.823 14.468,9.707 14.784,8.925C15.282,7.693 16.837,7.785 17.975,7.852C18.399,7.877 18.798,7.902 19.098,7.867C20.236,7.737 20.587,6.158 20.834,5.85C21.368,5.183 23.004,4.178 24.018,3.558C22.109,2.785 20.042,2.386 17.953,2.388L17.953,2.388Z" fill="url(#pf_0_3205_4598)"/>
<defs>
<linearGradient id="pf_0_3205_4598" x1="-3.786" y1="-7.276" x2="33.45" y2="41.287" gradientUnits="userSpaceOnUse">
<stop stop-color="#9DFE00"/>
<stop offset="1" stop-color="#14D9E5"/>
</linearGradient>
</defs>
</svg>
