<svg width="36" height="40" viewBox="0 0 36 40" fill="none" xmlns="http://www.w3.org/2000/svg" xmlns:xlink="http://www.w3.org/1999/xlink">
<path d="M7,3.873C9.968,1.398 13.66,0.053 17.463,0.059C21.421,0.059 25.059,1.486 27.927,3.873L30.633,1.057L33.267,3.797L30.561,6.613C32.939,9.701 34.232,13.542 34.226,17.499L34.226,19.437L0.7,19.437L0.7,17.499C0.7,13.381 2.071,9.597 4.366,6.613L1.66,3.799L4.293,1.059L7,3.875L7,3.873ZM0.7,23.312L34.226,23.312L34.226,36.876C34.226,37.39 34.03,37.883 33.681,38.246C33.331,38.61 32.858,38.814 32.364,38.814L2.563,38.814C2.069,38.814 1.595,38.61 1.246,38.246C0.897,37.883 0.7,37.39 0.7,36.876L0.7,23.312ZM11.876,13.623C12.37,13.623 12.843,13.419 13.193,13.056C13.542,12.693 13.738,12.2 13.738,11.686C13.738,11.172 13.542,10.679 13.193,10.316C12.843,9.952 12.37,9.748 11.876,9.748C11.382,9.748 10.908,9.952 10.559,10.316C10.209,10.679 10.013,11.172 10.013,11.686C10.013,12.2 10.209,12.693 10.559,13.056C10.908,13.419 11.382,13.623 11.876,13.623L11.876,13.623ZM23.051,13.623C23.545,13.623 24.019,13.419 24.368,13.056C24.717,12.693 24.914,12.2 24.914,11.686C24.914,11.172 24.717,10.679 24.368,10.316C24.019,9.952 23.545,9.748 23.051,9.748C22.557,9.748 22.083,9.952 21.734,10.316C21.385,10.679 21.188,11.172 21.188,11.686C21.188,12.2 21.385,12.693 21.734,13.056C22.083,13.419 22.557,13.623 23.051,13.623L23.051,13.623Z" fill="url(#pf_0_3205_4586)"/>
<defs>
<linearGradient id="pf_0_3205_4586" x1="-2.455" y1="-7.625" x2="31.663" y2="48.837" gradientUnits="userSpaceOnUse">
<stop stop-color="#9DFE00"/>
<stop offset="1" stop-color="#14D9E5"/>
</linearGradient>
</defs>
</svg>
