<svg width="32" height="22" viewBox="0 0 32 22" fill="none" xmlns="http://www.w3.org/2000/svg" xmlns:xlink="http://www.w3.org/1999/xlink">
<path d="M15.273,4.555C19.705,4.555 23.967,6.258 27.179,9.311C27.421,9.547 27.808,9.544 28.046,9.305L30.358,6.971C30.478,6.85 30.546,6.685 30.545,6.514C30.544,6.343 30.475,6.179 30.353,6.059C21.922,-2.02 8.623,-2.02 0.193,6.059C0.07,6.179 0.001,6.343 0,6.514C-0.001,6.685 0.066,6.85 0.187,6.971L2.499,9.305C2.737,9.544 3.124,9.547 3.366,9.311C6.578,6.258 10.841,4.555 15.273,4.555ZM15.273,12.146C17.708,12.146 20.056,13.051 21.861,14.685C22.105,14.917 22.49,14.912 22.728,14.674L25.037,12.34C25.159,12.218 25.226,12.052 25.224,11.88C25.223,11.707 25.152,11.542 25.028,11.422C19.531,6.31 11.019,6.31 5.523,11.422C5.399,11.542 5.328,11.707 5.326,11.88C5.325,12.052 5.393,12.218 5.514,12.34L7.823,14.674C8.061,14.912 8.446,14.917 8.69,14.685C10.493,13.052 12.84,12.147 15.273,12.146ZM19.899,17.253C19.903,17.426 19.835,17.593 19.711,17.714L15.717,21.746C15.599,21.864 15.44,21.931 15.273,21.931C15.107,21.931 14.947,21.864 14.83,21.746L10.835,17.714C10.711,17.593 10.643,17.426 10.647,17.253C10.651,17.08 10.725,16.916 10.854,16.8C13.405,14.643 17.141,14.643 19.693,16.8C19.821,16.917 19.896,17.08 19.899,17.253Z" clip-rule="evenodd" fill-rule="evenodd" fill="#FFFFFF"/>
</svg>
