<svg width="16" height="20" viewBox="0 0 16 20" fill="none" xmlns="http://www.w3.org/2000/svg" xmlns:xlink="http://www.w3.org/1999/xlink">
<path d="M11.243,13.409C11.243,12.623 10.957,11.98 10.314,11.551C9.742,11.122 8.671,10.765 7.17,10.408C5.669,10.122 4.526,9.693 3.668,9.265C2.811,8.836 2.168,8.264 1.739,7.692C1.31,7.049 1.096,6.335 1.096,5.477C1.096,4.048 1.668,2.905 2.882,1.904C4.097,0.904 5.598,0.475 7.456,0.475C9.385,0.475 10.957,0.975 12.172,1.976C13.387,2.976 13.959,4.262 13.959,5.835L11.1,5.835C11.1,5.048 10.743,4.334 10.1,3.762C9.385,3.191 8.528,2.905 7.527,2.905C6.455,2.905 5.598,3.119 5.026,3.619C4.455,4.048 4.097,4.691 4.097,5.477C4.097,6.192 4.383,6.692 4.955,7.049C5.526,7.407 6.527,7.764 7.956,8.05C9.385,8.407 10.6,8.764 11.529,9.193C12.458,9.622 13.101,10.194 13.53,10.837C13.959,11.48 14.173,12.266 14.173,13.195C14.173,14.695 13.53,15.982 12.315,16.911C11.1,17.84 9.528,18.268 7.527,18.268C6.17,18.268 4.955,18.054 3.883,17.554C2.811,17.054 2.025,16.41 1.382,15.481C0.81,14.624 0.453,13.695 0.453,12.623L3.383,12.623C3.454,13.624 3.811,14.41 4.597,14.981C5.312,15.553 6.312,15.839 7.527,15.839C8.671,15.839 9.528,15.624 10.171,15.196C10.957,14.767 11.243,14.124 11.243,13.409Z" fill="#223242"/>
</svg>
