<svg width="42" height="40" viewBox="0 0 42 40" fill="none" xmlns="http://www.w3.org/2000/svg" xmlns:xlink="http://www.w3.org/1999/xlink">
<path d="M39.088,17.398C39.087,17.397 39.086,17.396 39.085,17.395L22.769,1.079C22.073,0.383 21.148,0 20.165,0C19.181,0 18.257,0.383 17.561,1.079L1.253,17.387C1.247,17.392 1.241,17.398 1.236,17.404C-0.192,18.84 -0.19,21.171 1.243,22.603C1.898,23.258 2.762,23.637 3.686,23.677C3.724,23.681 3.762,23.683 3.8,23.683L4.45,23.683L4.45,35.69C4.45,38.067 6.384,40 8.76,40L15.144,40C15.791,40 16.316,39.475 16.316,38.828L16.316,29.414C16.316,28.33 17.198,27.448 18.282,27.448L22.047,27.448C23.132,27.448 24.014,28.33 24.014,29.414L24.014,38.828C24.014,39.475 24.538,40 25.186,40L31.569,40C33.946,40 35.879,38.067 35.879,35.69L35.879,23.683L36.482,23.683C37.466,23.683 38.39,23.3 39.086,22.604C40.521,21.169 40.521,18.834 39.088,17.398ZM37.429,20.947C37.176,21.2 36.84,21.339 36.482,21.339L34.707,21.339C34.06,21.339 33.535,21.864 33.535,22.511L33.535,35.69C33.535,36.774 32.654,37.656 31.569,37.656L26.357,37.656L26.357,29.414C26.357,27.038 24.424,25.104 22.047,25.104L18.282,25.104C15.906,25.104 13.972,27.038 13.972,29.414L13.972,37.656L8.76,37.656C7.676,37.656 6.794,36.774 6.794,35.69L6.794,22.511C6.794,21.864 6.269,21.339 5.622,21.339L3.878,21.339C3.859,21.338 3.841,21.337 3.823,21.337C3.474,21.331 3.146,21.192 2.901,20.946C2.379,20.424 2.379,19.575 2.901,19.053C2.901,19.053 2.901,19.053 2.901,19.052L2.902,19.052L19.219,2.736C19.471,2.483 19.807,2.344 20.165,2.344C20.522,2.344 20.858,2.483 21.111,2.736L37.424,19.048C37.426,19.051 37.429,19.053 37.431,19.055C37.95,19.578 37.95,20.426 37.429,20.947Z" fill="#FFFFFF"/>
</svg>
