<svg width="16" height="26" viewBox="0 0 16 26" fill="none" xmlns="http://www.w3.org/2000/svg" xmlns:xlink="http://www.w3.org/1999/xlink">
<path d="M14.743,9.55C14.743,12.194 14.172,14.267 12.957,15.839C11.742,17.411 10.17,18.197 8.098,18.197C6.025,18.197 4.382,17.554 3.167,16.196L3.167,24.485L0.309,24.485L0.309,0.761L2.953,0.761L3.096,2.69C4.31,1.19 5.954,0.475 8.098,0.475C10.17,0.475 11.814,1.261 12.957,2.833C14.172,4.405 14.743,6.549 14.743,9.336L14.743,9.55ZM11.814,9.265C11.814,7.335 11.385,5.835 10.599,4.691C9.813,3.548 8.669,2.976 7.24,2.976C5.454,2.976 4.167,3.762 3.238,5.334L3.238,13.552C4.096,15.124 5.454,15.91 7.24,15.91C8.669,15.91 9.741,15.339 10.599,14.267C11.385,13.052 11.814,11.408 11.814,9.265Z" fill="#223242"/>
</svg>
