<svg width="16" height="26" viewBox="0 0 16 26" fill="none" xmlns="http://www.w3.org/2000/svg" xmlns:xlink="http://www.w3.org/1999/xlink">
<path d="M0.429,15.264C0.429,12.62 1.072,10.548 2.287,8.904C3.501,7.332 5.145,6.475 7.217,6.475C9.218,6.475 10.79,7.189 12.005,8.547L12.005,-0.385L14.935,-0.385L14.935,23.982L12.219,23.982L12.076,22.124C10.933,23.553 9.29,24.268 7.146,24.268C5.145,24.268 3.573,23.482 2.287,21.838C1,20.195 0.429,18.051 0.429,15.479L0.429,15.264L0.429,15.264ZM3.359,15.55C3.359,17.48 3.787,19.052 4.573,20.123C5.359,21.195 6.503,21.767 7.932,21.767C9.79,21.767 11.148,20.909 12.005,19.266L12.005,11.406C11.148,9.762 9.79,8.976 7.932,8.976C6.503,8.976 5.359,9.548 4.573,10.619C3.787,11.763 3.359,13.406 3.359,15.55Z" fill="#223242"/>
</svg>
