<svg width="16" height="20" viewBox="0 0 16 20" fill="none" xmlns="http://www.w3.org/2000/svg" xmlns:xlink="http://www.w3.org/1999/xlink">
<path d="M8.442,18.268C6.084,18.268 4.226,17.482 2.797,15.982C1.368,14.481 0.582,12.409 0.582,9.836L0.582,9.264C0.582,7.549 0.939,6.049 1.582,4.691C2.226,3.333 3.155,2.333 4.298,1.547C5.441,0.761 6.727,0.404 8.085,0.404C10.3,0.404 12.015,1.118 13.302,2.619C14.588,4.119 15.16,6.192 15.16,8.907L15.16,10.122L3.512,10.122C3.583,11.837 4.083,13.195 5.012,14.195C5.941,15.267 7.156,15.767 8.585,15.767C9.657,15.767 10.515,15.553 11.229,15.124C11.944,14.695 12.587,14.124 13.087,13.409L14.874,14.838C13.516,17.196 11.301,18.268 8.442,18.268ZM8.085,2.905C6.87,2.905 5.941,3.333 5.084,4.191C4.298,5.048 3.798,6.263 3.583,7.835L12.158,7.835L12.158,7.621C12.087,6.12 11.658,4.977 10.944,4.191C10.3,3.333 9.3,2.905 8.085,2.905Z" fill="#223242"/>
</svg>
