<svg width="42" height="40" viewBox="0 0 42 40" fill="none" xmlns="http://www.w3.org/2000/svg" xmlns:xlink="http://www.w3.org/1999/xlink">
<path d="M34.642,5.858C30.865,2.08 25.842,0 20.5,0C15.158,0 10.135,2.08 6.358,5.858C2.58,9.635 0.5,14.658 0.5,20C0.5,25.342 2.58,30.365 6.358,34.142C10.135,37.92 15.158,40 20.5,40C25.842,40 30.865,37.92 34.642,34.142C38.42,30.365 40.5,25.342 40.5,20C40.5,14.658 38.42,9.635 34.642,5.858ZM9.18,33.539C9.841,27.856 14.726,23.469 20.5,23.469C23.544,23.469 26.406,24.655 28.559,26.808C30.378,28.627 31.525,31.002 31.82,33.539C28.753,36.107 24.804,37.656 20.5,37.656C16.196,37.656 12.247,36.107 9.18,33.539ZM20.5,21.055C17.151,21.055 14.425,18.33 14.425,14.981C14.425,11.631 17.151,8.906 20.5,8.906C23.849,8.906 26.575,11.631 26.575,14.981C26.575,18.33 23.849,21.055 20.5,21.055ZM33.837,31.557C33.24,29.149 31.995,26.929 30.216,25.151C28.776,23.71 27.072,22.63 25.213,21.953C27.447,20.437 28.918,17.878 28.918,14.981C28.918,10.339 25.142,6.563 20.5,6.563C15.858,6.563 12.082,10.339 12.082,14.981C12.082,17.879 13.554,20.44 15.79,21.955C14.08,22.578 12.498,23.541 11.136,24.81C9.165,26.646 7.796,28.987 7.161,31.555C4.473,28.456 2.844,24.415 2.844,20C2.844,10.264 10.764,2.344 20.5,2.344C30.236,2.344 38.156,10.264 38.156,20C38.156,24.416 36.527,28.458 33.837,31.557Z" fill="#E3E3E3"/>
</svg>
