<svg width="24" height="24" viewBox="0 0 24 24" fill="none" xmlns="http://www.w3.org/2000/svg" xmlns:xlink="http://www.w3.org/1999/xlink">
<path d="M9.29,3.402L9.29,6.1L2.923,6.1L2.923,20.935L16.93,20.935L16.93,14.192L19.476,14.192L19.476,22.284C19.476,22.641 19.342,22.984 19.103,23.237C18.864,23.49 18.541,23.632 18.203,23.632L1.65,23.632C1.312,23.632 0.988,23.49 0.749,23.237C0.51,22.984 0.376,22.641 0.376,22.284L0.376,4.751C0.376,4.393 0.51,4.05 0.749,3.797C0.988,3.545 1.312,3.402 1.65,3.402L9.29,3.402ZM23.296,-0.644L23.296,11.494L18.465,6.379L10.826,14.471L9.026,12.564L16.665,4.472L11.836,-0.644L23.296,-0.644Z" fill="#FFFFFF"/>
</svg>
