<svg width="6" height="24" viewBox="0 0 6 24" fill="none" xmlns="http://www.w3.org/2000/svg" xmlns:xlink="http://www.w3.org/1999/xlink">
<path d="M0.995,2.259C0.995,1.759 1.137,1.401 1.423,1.044C1.709,0.687 2.138,0.544 2.71,0.544C3.281,0.544 3.71,0.687 3.996,1.044C4.282,1.401 4.425,1.759 4.425,2.259C4.425,2.759 4.282,3.116 3.996,3.474C3.71,3.759 3.281,3.974 2.71,3.974C2.138,3.974 1.709,3.831 1.423,3.474C1.137,3.116 0.995,2.759 0.995,2.259ZM4.21,23.982L1.28,23.982L1.28,6.832L4.21,6.832L4.21,23.982Z" fill="#223242"/>
</svg>
