<svg width="40" height="40" viewBox="0 0 40 40" fill="none" xmlns="http://www.w3.org/2000/svg" xmlns:xlink="http://www.w3.org/1999/xlink">
<path d="M38.838,17.398C38.837,17.397 38.836,17.396 38.835,17.395L22.519,1.079C21.823,0.383 20.898,0 19.915,0C18.931,0 18.007,0.383 17.311,1.079L1.003,17.387C0.997,17.392 0.991,17.398 0.986,17.404C-0.442,18.84 -0.44,21.171 0.993,22.603C1.648,23.258 2.512,23.637 3.436,23.677C3.474,23.681 3.512,23.683 3.55,23.683L4.2,23.683L4.2,35.69C4.2,38.067 6.134,40 8.51,40L14.894,40C15.541,40 16.066,39.475 16.066,38.828L16.066,29.414C16.066,28.33 16.948,27.448 18.032,27.448L21.797,27.448C22.882,27.448 23.764,28.33 23.764,29.414L23.764,38.828C23.764,39.475 24.288,40 24.936,40L31.319,40C33.696,40 35.629,38.067 35.629,35.69L35.629,23.683L36.232,23.683C37.216,23.683 38.14,23.3 38.836,22.604C40.271,21.169 40.271,18.834 38.838,17.398ZM37.179,20.947C36.926,21.2 36.59,21.339 36.232,21.339L34.457,21.339C33.81,21.339 33.285,21.864 33.285,22.511L33.285,35.69C33.285,36.774 32.404,37.656 31.319,37.656L26.107,37.656L26.107,29.414C26.107,27.038 24.174,25.104 21.797,25.104L18.032,25.104C15.656,25.104 13.722,27.038 13.722,29.414L13.722,37.656L8.51,37.656C7.426,37.656 6.544,36.774 6.544,35.69L6.544,22.511C6.544,21.864 6.019,21.339 5.372,21.339L3.628,21.339C3.609,21.338 3.591,21.337 3.573,21.337C3.224,21.331 2.896,21.192 2.651,20.946C2.129,20.424 2.129,19.575 2.651,19.053C2.651,19.053 2.651,19.053 2.651,19.052L2.652,19.052L18.969,2.736C19.221,2.483 19.557,2.344 19.915,2.344C20.272,2.344 20.608,2.483 20.861,2.736L37.174,19.048C37.176,19.051 37.179,19.053 37.181,19.055C37.7,19.578 37.7,20.426 37.179,20.947Z" fill="#E3E3E3"/>
</svg>
