<svg width="24" height="24" viewBox="0 0 24 24" fill="none" xmlns="http://www.w3.org/2000/svg" xmlns:xlink="http://www.w3.org/1999/xlink">
<path d="M4.786,24C4.539,24 4.295,23.914 4.086,23.746C3.697,23.432 3.515,22.893 3.621,22.372L5.068,15.275L0.159,10.483C-0.202,10.133 -0.339,9.577 -0.191,9.069C-0.043,8.562 0.36,8.203 0.837,8.154L7.332,7.498L9.9,0.809C10.09,0.317 10.521,0 11,0C11.479,0 11.91,0.317 12.1,0.808L14.668,7.498L21.162,8.154C21.64,8.202 22.043,8.562 22.191,9.069C22.339,9.576 22.202,10.133 21.841,10.483L16.933,15.274L18.38,22.371C18.486,22.893 18.304,23.432 17.915,23.745C17.527,24.058 17.009,24.082 16.601,23.809L11,20.084L5.399,23.811C5.21,23.936 4.999,24 4.786,24ZM11,18.479C11.213,18.479 11.424,18.542 11.613,18.668L16.899,22.186L15.533,15.488C15.435,15.011 15.581,14.513 15.912,14.191L20.547,9.666L14.414,9.046C13.973,9.001 13.593,8.693 13.421,8.24L11,1.927L8.576,8.241C8.406,8.69 8.026,8.999 7.585,9.044L1.452,9.664L6.087,14.189C6.419,14.512 6.564,15.009 6.466,15.487L5.101,22.185L10.387,18.668C10.576,18.542 10.787,18.479 11,18.479ZM7.283,7.627C7.283,7.627 7.283,7.628 7.282,7.629L7.283,7.627ZM14.715,7.624L14.716,7.626C14.716,7.625 14.716,7.625 14.715,7.624Z" fill="#191D29"/>
</svg>
