<svg width="18" height="26" viewBox="0 0 18 26" fill="none" xmlns="http://www.w3.org/2000/svg" xmlns:xlink="http://www.w3.org/1999/xlink">
<path d="M8.014,13.692C5.37,12.978 3.512,12.049 2.297,10.905C1.082,9.833 0.511,8.476 0.511,6.832C0.511,5.046 1.225,3.545 2.726,2.33C4.155,1.115 6.084,0.544 8.371,0.544C9.943,0.544 11.372,0.83 12.587,1.473C13.802,2.116 14.802,2.902 15.445,3.974C16.089,5.046 16.446,6.26 16.446,7.475L13.373,7.475C13.373,6.046 12.944,4.974 12.015,4.188C11.158,3.402 9.872,2.973 8.228,2.973C6.728,2.973 5.584,3.331 4.727,3.974C3.869,4.617 3.44,5.546 3.44,6.761C3.44,7.69 3.869,8.476 4.655,9.119C5.441,9.762 6.799,10.334 8.728,10.905C10.658,11.477 12.158,12.049 13.23,12.692C14.302,13.335 15.088,14.121 15.66,14.978C16.16,15.836 16.446,16.836 16.446,18.051C16.446,19.909 15.731,21.41 14.231,22.553C12.802,23.696 10.801,24.268 8.371,24.268C6.799,24.268 5.298,23.982 3.941,23.339C2.583,22.767 1.511,21.91 0.796,20.838C0.082,19.766 -0.347,18.551 -0.347,17.265L2.726,17.265C2.726,18.694 3.226,19.766 4.298,20.552C5.37,21.338 6.728,21.767 8.443,21.767C10.015,21.767 11.301,21.41 12.158,20.767C13.016,20.123 13.445,19.194 13.445,18.123C13.445,17.051 13.016,16.122 12.23,15.479C11.587,14.907 10.086,14.264 8.014,13.692Z" fill="#223242"/>
</svg>
