<svg width="20" height="26" viewBox="0 0 20 26" fill="none" xmlns="http://www.w3.org/2000/svg" xmlns:xlink="http://www.w3.org/1999/xlink">
<path d="M0.112,17.765C0.112,16.622 0.397,15.622 1.04,14.693C1.684,13.764 2.827,12.692 4.613,11.477C3.613,10.262 2.898,9.19 2.541,8.476C2.184,7.69 2.041,6.975 2.041,6.189C2.041,4.403 2.541,3.045 3.613,2.044C4.685,1.044 6.043,0.544 7.829,0.544C9.401,0.544 10.759,0.973 11.759,1.901C12.831,2.83 13.331,3.974 13.331,5.403C13.331,6.332 13.117,7.189 12.617,7.975C12.117,8.762 11.331,9.619 10.187,10.477L8.472,11.763L13.617,17.908C14.332,16.551 14.689,14.978 14.689,13.335L17.333,13.335C17.333,16.05 16.69,18.266 15.404,20.052L18.691,23.982L15.189,23.982L13.617,22.124C12.831,22.839 11.902,23.339 10.902,23.696C9.83,24.054 8.758,24.268 7.686,24.268C5.4,24.268 3.613,23.696 2.255,22.482C0.826,21.267 0.112,19.695 0.112,17.765ZM7.615,21.838C9.187,21.838 10.616,21.267 11.902,20.052L6.257,13.335L5.757,13.692C3.97,14.978 3.113,16.336 3.113,17.694C3.113,18.909 3.542,19.909 4.328,20.695C5.114,21.481 6.186,21.838 7.615,21.838ZM4.971,6.046C4.971,7.047 5.614,8.333 6.829,9.833L8.687,8.547C9.401,8.047 9.901,7.547 10.187,7.118C10.473,6.689 10.616,6.118 10.616,5.474C10.616,4.76 10.33,4.188 9.83,3.688C9.33,3.188 8.615,2.973 7.829,2.973C6.972,2.973 6.257,3.259 5.757,3.831C5.185,4.403 4.971,5.189 4.971,6.046Z" fill="#223242"/>
</svg>
