<svg width="10" height="24" viewBox="0 0 10 24" fill="none" xmlns="http://www.w3.org/2000/svg" xmlns:xlink="http://www.w3.org/1999/xlink">
<path d="M6.323,0.616L6.323,4.761L9.539,4.761L9.539,7.047L6.323,7.047L6.323,17.695C6.323,18.409 6.466,18.91 6.752,19.267C7.038,19.624 7.538,19.767 8.181,19.767C8.539,19.767 8.967,19.696 9.61,19.553L9.61,21.911C8.824,22.125 8.11,22.197 7.324,22.197C6.037,22.197 5.037,21.768 4.394,20.982C3.751,20.196 3.393,19.052 3.393,17.623L3.393,6.976L0.249,6.976L0.249,4.689L3.393,4.689L3.393,0.545L6.323,0.545L6.323,0.616Z" fill="#223242"/>
</svg>
