<svg width="16" height="24" viewBox="0 0 16 24" fill="none" xmlns="http://www.w3.org/2000/svg" xmlns:xlink="http://www.w3.org/1999/xlink">
<path d="M2.481,14.907L2.481,23.911L-0.591,23.911L-0.591,0.83L7.912,0.83C10.413,0.83 12.414,1.473 13.843,2.759C15.272,4.045 15.987,5.76 15.987,7.904C15.987,10.119 15.272,11.906 13.915,13.049C12.486,14.264 10.485,14.835 7.912,14.835L2.481,14.835L2.481,14.907ZM2.481,12.406L7.984,12.406C9.627,12.406 10.842,12.049 11.699,11.263C12.557,10.477 12.986,9.405 12.986,7.904C12.986,6.546 12.557,5.403 11.699,4.617C10.842,3.759 9.627,3.331 8.127,3.331L2.481,3.331L2.481,12.406L2.481,12.406Z" fill="#223242"/>
</svg>
