<svg width="16" height="26" viewBox="0 0 16 26" fill="none" xmlns="http://www.w3.org/2000/svg" xmlns:xlink="http://www.w3.org/1999/xlink">
<path d="M14.559,15.55C14.559,18.194 13.987,20.266 12.772,21.838C11.558,23.411 9.985,24.197 7.913,24.197C5.769,24.197 4.054,23.411 2.911,21.91L2.768,23.911L0.053,23.911L0.053,-0.457L2.983,-0.457L2.983,8.619C4.197,7.118 5.769,6.403 7.913,6.403C9.985,6.403 11.629,7.19 12.844,8.762C14.059,10.334 14.63,12.477 14.63,15.264L14.63,15.55L14.559,15.55ZM11.629,15.264C11.629,13.264 11.272,11.691 10.486,10.62C9.7,9.548 8.628,8.976 7.127,8.976C5.198,8.976 3.84,9.905 2.983,11.691L2.983,19.123C3.911,20.91 5.269,21.838 7.199,21.838C8.628,21.838 9.7,21.267 10.486,20.195C11.272,19.052 11.629,17.408 11.629,15.264Z" fill="#223242"/>
</svg>
