<svg width="14" height="20" viewBox="0 0 14 20" fill="none" xmlns="http://www.w3.org/2000/svg" xmlns:xlink="http://www.w3.org/1999/xlink">
<path d="M10.522,13.409C10.522,12.623 10.236,11.98 9.593,11.551C9.022,11.122 7.95,10.765 6.449,10.408C4.948,10.122 3.805,9.693 2.948,9.265C2.09,8.836 1.447,8.264 1.018,7.692C0.59,7.049 0.375,6.335 0.375,5.477C0.375,4.048 0.947,2.905 2.162,1.904C3.376,0.904 4.877,0.475 6.735,0.475C8.664,0.475 10.236,0.975 11.451,1.976C12.666,2.976 13.238,4.262 13.238,5.835L10.308,5.835C10.308,5.048 9.951,4.334 9.307,3.762C8.664,3.191 7.735,2.905 6.735,2.905C5.663,2.905 4.806,3.119 4.234,3.619C3.662,4.048 3.305,4.691 3.305,5.477C3.305,6.192 3.591,6.692 4.162,7.049C4.734,7.407 5.735,7.764 7.164,8.05C8.593,8.407 9.808,8.764 10.737,9.193C11.666,9.622 12.309,10.194 12.737,10.837C13.166,11.48 13.381,12.266 13.381,13.195C13.381,14.695 12.737,15.982 11.523,16.911C10.308,17.84 8.736,18.268 6.735,18.268C5.377,18.268 4.162,18.054 3.091,17.554C2.019,17.054 1.233,16.41 0.59,15.481C0.018,14.624 -0.339,13.695 -0.339,12.623L2.59,12.623C2.662,13.624 3.019,14.41 3.805,14.981C4.52,15.553 5.52,15.839 6.735,15.839C7.878,15.839 8.736,15.624 9.379,15.196C10.165,14.767 10.522,14.124 10.522,13.409Z" fill="#223242"/>
</svg>
