<svg width="16" height="20" viewBox="0 0 16 20" fill="none" xmlns="http://www.w3.org/2000/svg" xmlns:xlink="http://www.w3.org/1999/xlink">
<path d="M11.205,13.409C11.205,12.623 10.919,11.98 10.276,11.551C9.704,11.122 8.632,10.765 7.132,10.408C5.631,10.122 4.488,9.693 3.63,9.265C2.773,8.836 2.129,8.264 1.701,7.692C1.272,7.121 1.058,6.335 1.058,5.477C1.058,4.048 1.629,2.905 2.844,1.904C4.059,0.904 5.559,0.475 7.417,0.475C9.347,0.475 10.919,0.975 12.134,1.976C13.348,2.976 13.92,4.262 13.92,5.835L10.99,5.835C10.99,5.048 10.633,4.334 9.99,3.762C9.347,3.191 8.418,2.905 7.417,2.905C6.345,2.905 5.488,3.119 4.916,3.619C4.345,4.048 3.987,4.691 3.987,5.477C3.987,6.192 4.273,6.692 4.845,7.049C5.417,7.407 6.417,7.764 7.846,8.05C9.275,8.407 10.49,8.764 11.419,9.193C12.348,9.622 12.991,10.194 13.42,10.837C13.849,11.48 14.063,12.266 14.063,13.195C14.063,14.695 13.42,15.982 12.205,16.911C10.99,17.84 9.418,18.268 7.417,18.268C6.06,18.268 4.845,18.054 3.773,17.554C2.701,17.054 1.915,16.41 1.272,15.481C0.7,14.624 0.343,13.695 0.343,12.623L3.273,12.623C3.344,13.624 3.702,14.41 4.488,14.981C5.202,15.553 6.203,15.839 7.417,15.839C8.561,15.839 9.418,15.624 10.061,15.196C10.919,14.767 11.205,14.124 11.205,13.409Z" fill="#223242"/>
</svg>
