<svg width="30" height="42" viewBox="0 0 30 42" fill="none" xmlns="http://www.w3.org/2000/svg" xmlns:xlink="http://www.w3.org/1999/xlink">
<path d="M12.686,30.943C8.995,30.446 5.622,28.478 3.251,25.441C0.881,22.404 -0.309,18.525 -0.076,14.592C0.157,10.66 1.795,6.968 4.505,4.269C7.216,1.569 10.795,0.064 14.515,0.059C18.24,0.056 21.826,1.558 24.542,4.258C27.258,6.958 28.9,10.653 29.133,14.59C29.367,18.528 28.174,22.412 25.797,25.45C23.421,28.488 20.041,30.453 16.345,30.943L16.345,34.962C23.564,35.14 29.151,36.363 29.151,37.845C29.151,39.45 22.598,40.752 14.515,40.752C6.432,40.752 -0.121,39.45 -0.121,37.845C-0.121,36.363 5.466,35.14 12.686,34.962L12.686,30.943L12.686,30.943ZM14.515,19.437C15.486,19.437 16.416,19.028 17.102,18.302C17.789,17.575 18.174,16.589 18.174,15.561C18.174,14.533 17.789,13.548 17.102,12.821C16.416,12.094 15.486,11.686 14.515,11.686C13.545,11.686 12.614,12.094 11.928,12.821C11.242,13.548 10.856,14.533 10.856,15.561C10.856,16.589 11.242,17.575 11.928,18.302C12.614,19.028 13.545,19.437 14.515,19.437Z" fill="url(#pf_0_3205_4607)"/>
<defs>
<linearGradient id="pf_0_3205_4607" x1="-2.877" y1="-8.009" x2="26.923" y2="51.275" gradientUnits="userSpaceOnUse">
<stop stop-color="#9DFE00"/>
<stop offset="1" stop-color="#14D9E5"/>
</linearGradient>
</defs>
</svg>
