<svg width="24" height="22" viewBox="0 0 24 22" fill="none" xmlns="http://www.w3.org/2000/svg" xmlns:xlink="http://www.w3.org/1999/xlink">
<path d="M9.29,3.45L9.29,5.77L2.923,5.77L2.923,18.53L16.93,18.53L16.93,12.73L19.476,12.73L19.476,19.69C19.476,19.998 19.342,20.293 19.103,20.51C18.864,20.728 18.541,20.85 18.203,20.85L1.65,20.85C1.312,20.85 0.988,20.728 0.749,20.51C0.51,20.293 0.376,19.998 0.376,19.69L0.376,4.61C0.376,4.303 0.51,4.008 0.749,3.79C0.988,3.572 1.312,3.45 1.65,3.45L9.29,3.45ZM23.296,-0.03L23.296,10.41L18.465,6.01L10.826,12.97L9.026,11.33L16.665,4.37L11.836,-0.03L23.296,-0.03Z" fill="#FFFFFF"/>
</svg>
