<svg width="16" height="20" viewBox="0 0 16 20" fill="none" xmlns="http://www.w3.org/2000/svg" xmlns:xlink="http://www.w3.org/1999/xlink">
<path d="M-0.768,9.193C-0.768,7.478 -0.41,5.977 0.233,4.691C0.876,3.334 1.805,2.333 3.02,1.619C4.163,0.904 5.521,0.547 7.021,0.547C9.379,0.547 11.237,1.333 12.667,2.976C14.096,4.62 14.81,6.764 14.81,9.408L14.81,9.622C14.81,11.265 14.525,12.766 13.881,14.124C13.238,15.481 12.309,16.482 11.166,17.196C9.951,17.911 8.593,18.34 7.093,18.34C4.735,18.34 2.877,17.554 1.448,15.91C0.018,14.267 -0.696,12.123 -0.696,9.479L-0.696,9.193L-0.768,9.193ZM2.234,9.55C2.234,11.48 2.662,12.98 3.591,14.124C4.449,15.267 5.664,15.839 7.164,15.839C8.665,15.839 9.808,15.267 10.737,14.052C11.595,12.909 12.023,11.265 12.023,9.122C12.023,7.264 11.595,5.692 10.666,4.548C9.808,3.405 8.593,2.762 7.093,2.762C5.664,2.762 4.449,3.334 3.591,4.477C2.662,5.763 2.234,7.407 2.234,9.55Z" fill="#223242"/>
</svg>
