<svg width="6" height="24" viewBox="0 0 6 24" fill="none" xmlns="http://www.w3.org/2000/svg" xmlns:xlink="http://www.w3.org/1999/xlink">
<path d="M0.969,2.259C0.969,1.759 1.111,1.401 1.397,1.044C1.683,0.687 2.112,0.544 2.684,0.544C3.255,0.544 3.684,0.687 3.97,1.044C4.256,1.401 4.399,1.759 4.399,2.259C4.399,2.759 4.256,3.116 3.97,3.474C3.684,3.759 3.255,3.974 2.684,3.974C2.112,3.974 1.683,3.831 1.397,3.474C1.111,3.116 0.969,2.759 0.969,2.259ZM4.113,23.982L1.183,23.982L1.183,6.832L4.113,6.832L4.113,23.982Z" fill="#223242"/>
</svg>
