<svg width="16" height="20" viewBox="0 0 16 20" fill="none" xmlns="http://www.w3.org/2000/svg" xmlns:xlink="http://www.w3.org/1999/xlink">
<path d="M12.07,17.983C11.927,17.625 11.784,17.054 11.641,16.196C10.283,17.625 8.64,18.34 6.782,18.34C5.067,18.34 3.709,17.84 2.637,16.911C1.565,15.982 0.993,14.767 0.993,13.266C0.993,11.48 1.708,10.122 3.066,9.122C4.423,8.121 6.353,7.621 8.782,7.621L11.641,7.621L11.641,6.263C11.641,5.263 11.355,4.405 10.712,3.834C10.069,3.262 9.211,2.905 7.996,2.905C6.924,2.905 6.067,3.191 5.352,3.691C4.638,4.191 4.281,4.834 4.281,5.62L1.351,5.62C1.351,4.763 1.637,3.905 2.28,3.119C2.923,2.333 3.709,1.69 4.781,1.19C5.853,0.761 6.996,0.475 8.211,0.475C10.212,0.475 11.712,0.975 12.856,1.976C13.999,2.976 14.571,4.334 14.571,6.049L14.571,13.909C14.571,15.481 14.785,16.768 15.142,17.697L15.142,17.983L12.07,17.983L12.07,17.983ZM7.21,15.696C8.139,15.696 8.997,15.481 9.854,14.981C10.712,14.481 11.283,13.909 11.641,13.123L11.641,9.622L9.354,9.622C5.781,9.622 3.995,10.694 3.995,12.766C3.995,13.695 4.281,14.41 4.924,14.91C5.495,15.481 6.281,15.696 7.21,15.696Z" fill="#223242"/>
</svg>
