<svg width="16" height="20" viewBox="0 0 16 20" fill="none" xmlns="http://www.w3.org/2000/svg" xmlns:xlink="http://www.w3.org/1999/xlink">
<path d="M7.977,18.268C5.619,18.268 3.761,17.482 2.332,15.982C0.903,14.481 0.117,12.409 0.117,9.836L0.117,9.264C0.117,7.549 0.474,6.049 1.117,4.691C1.76,3.333 2.689,2.333 3.832,1.547C4.976,0.761 6.262,0.404 7.62,0.404C9.835,0.404 11.55,1.118 12.836,2.619C14.123,4.119 14.694,6.192 14.694,8.907L14.694,10.122L3.046,10.122C3.118,11.837 3.618,13.195 4.547,14.195C5.476,15.267 6.691,15.767 8.12,15.767C9.192,15.767 10.049,15.553 10.764,15.124C11.479,14.695 12.122,14.124 12.622,13.409L14.408,14.838C12.979,17.196 10.835,18.268 7.977,18.268ZM7.62,2.905C6.405,2.905 5.476,3.333 4.619,4.191C3.832,5.048 3.332,6.263 3.118,7.835L11.693,7.835L11.693,7.621C11.621,6.12 11.193,4.977 10.478,4.191C9.835,3.333 8.835,2.905 7.62,2.905Z" fill="#223242"/>
</svg>
