<svg width="40" height="40" viewBox="0 0 40 40" fill="none" xmlns="http://www.w3.org/2000/svg" xmlns:xlink="http://www.w3.org/1999/xlink">
<path d="M35.609,10.745L35.594,10.721C38.387,6.101 38.978,3.035 37.35,1.4C35.723,-0.235 32.639,0.363 28.004,3.168C24.359,1.161 20.162,0.392 16.042,0.976C11.923,1.561 8.105,3.468 5.163,6.41C2.221,9.352 0.315,13.17 -0.27,17.289C-0.854,21.409 -0.085,25.606 1.923,29.25C-0.884,33.887 -1.481,36.962 0.15,38.6C0.467,38.906 0.844,39.145 1.257,39.301C1.669,39.457 2.109,39.527 2.55,39.507C5.048,39.223 7.432,38.308 9.48,36.849L9.496,36.86L9.526,36.84C13.169,38.837 17.361,39.598 21.473,39.01C25.585,38.422 29.395,36.517 32.332,33.579C35.269,30.642 37.174,26.831 37.762,22.719C38.349,18.607 37.587,14.416 35.591,10.773L35.609,10.745ZM35.205,3.5C35.355,3.767 35.271,5.121 33.719,7.976C32.845,6.891 31.857,5.903 30.773,5.03C33.627,3.477 34.974,3.392 35.205,3.5ZM18.75,3.785C21.362,3.787 23.934,4.42 26.249,5.629C28.564,6.838 30.553,8.588 32.048,10.73C29.007,15.133 25.556,19.238 21.74,22.989C17.989,26.805 13.884,30.257 9.481,33.297C6.649,31.325 4.521,28.5 3.406,25.234C2.29,21.968 2.246,18.431 3.281,15.138C4.315,11.846 6.373,8.969 9.155,6.927C11.937,4.885 15.299,3.784 18.75,3.785ZM2.295,36.5C2.145,36.233 2.229,34.878 3.781,32.024C4.654,33.109 5.642,34.097 6.727,34.97C3.873,36.522 2.524,36.606 2.295,36.5ZM18.75,36.215C16.572,36.212 14.416,35.769 12.414,34.911C16.493,31.966 20.322,28.688 23.861,25.11C27.438,21.572 30.716,17.744 33.662,13.664C34.715,16.128 35.141,18.815 34.9,21.484C34.659,24.153 33.759,26.721 32.281,28.956C30.802,31.192 28.792,33.025 26.431,34.292C24.069,35.559 21.43,36.22 18.75,36.215Z" fill="#FFFFFF"/>
</svg>
