<svg width="16" height="20" viewBox="0 0 16 20" fill="none" xmlns="http://www.w3.org/2000/svg" xmlns:xlink="http://www.w3.org/1999/xlink">
<path d="M8.576,18.268C6.218,18.268 4.36,17.482 2.931,15.982C1.502,14.481 0.716,12.409 0.716,9.836L0.716,9.264C0.716,7.549 1.073,6.049 1.716,4.691C2.359,3.333 3.288,2.333 4.432,1.547C5.575,0.761 6.861,0.404 8.219,0.404C10.434,0.404 12.149,1.118 13.435,2.619C14.65,4.119 15.293,6.192 15.293,8.907L15.293,10.122L3.646,10.122C3.717,11.837 4.217,13.195 5.146,14.195C6.075,15.267 7.29,15.767 8.719,15.767C9.791,15.767 10.649,15.553 11.363,15.124C12.078,14.695 12.721,14.124 13.221,13.409L15.008,14.838C13.65,17.196 11.506,18.268 8.576,18.268ZM8.219,2.905C7.004,2.905 6.075,3.333 5.218,4.191C4.432,5.048 3.931,6.263 3.717,7.835L12.292,7.835L12.292,7.621C12.221,6.12 11.792,4.977 11.077,4.191C10.434,3.333 9.505,2.905 8.219,2.905Z" fill="#223242"/>
</svg>
