<svg width="34" height="34" viewBox="0 0 34 34" fill="none" xmlns="http://www.w3.org/2000/svg" xmlns:xlink="http://www.w3.org/1999/xlink">
<path d="M14.333,-0.667C22.613,-0.667 29.333,6.053 29.333,14.333C29.333,22.613 22.613,29.333 14.333,29.333C6.053,29.333 -0.667,22.613 -0.667,14.333C-0.667,6.053 6.053,-0.667 14.333,-0.667ZM14.333,26C20.778,26 26,20.778 26,14.333C26,7.887 20.778,2.667 14.333,2.667C7.887,2.667 2.667,7.887 2.667,14.333C2.667,20.778 7.887,26 14.333,26ZM28.475,26.118L33.19,30.832L30.832,33.19L26.118,28.475L28.475,26.118L28.475,26.118Z" fill="#FFFFFF"/>
</svg>
