<svg width="16" height="20" viewBox="0 0 16 20" fill="none" xmlns="http://www.w3.org/2000/svg" xmlns:xlink="http://www.w3.org/1999/xlink">
<path d="M7.419,18.268C5.061,18.268 3.203,17.482 1.774,15.981C0.345,14.481 -0.441,12.409 -0.441,9.836L-0.441,9.264C-0.441,7.549 -0.084,6.049 0.559,4.691C1.202,3.333 2.131,2.333 3.274,1.547C4.418,0.761 5.704,0.404 7.062,0.404C9.277,0.404 10.992,1.118 12.278,2.619C13.493,4.119 14.136,6.192 14.136,8.907L14.136,10.122L2.488,10.122C2.56,11.837 3.06,13.195 3.989,14.195C4.918,15.267 6.133,15.767 7.562,15.767C8.634,15.767 9.491,15.553 10.206,15.124C10.921,14.695 11.564,14.124 12.064,13.409L13.85,14.838C12.421,17.196 10.277,18.268 7.419,18.268ZM7.062,2.905C5.847,2.905 4.918,3.333 4.061,4.191C3.274,5.048 2.774,6.263 2.56,7.835L11.135,7.835L11.135,7.621C11.063,6.12 10.635,4.977 9.92,4.191C9.277,3.333 8.277,2.905 7.062,2.905Z" fill="#223242"/>
</svg>
