<svg width="16" height="26" viewBox="0 0 16 26" fill="none" xmlns="http://www.w3.org/2000/svg" xmlns:xlink="http://www.w3.org/1999/xlink">
<path d="M14.965,9.55C14.965,12.194 14.393,14.267 13.178,15.839C11.964,17.411 10.392,18.197 8.319,18.197C6.247,18.197 4.603,17.554 3.389,16.196L3.389,24.485L0.459,24.485L0.459,0.761L3.103,0.761L3.246,2.69C4.46,1.19 6.104,0.475 8.248,0.475C10.32,0.475 11.964,1.261 13.107,2.833C14.322,4.405 14.893,6.549 14.893,9.336L14.893,9.55L14.965,9.55ZM12.035,9.265C12.035,7.335 11.606,5.835 10.82,4.691C10.034,3.548 8.891,2.976 7.462,2.976C5.675,2.976 4.389,3.762 3.46,5.334L3.46,13.552C4.317,15.124 5.675,15.91 7.462,15.91C8.891,15.91 9.963,15.339 10.82,14.267C11.606,13.052 12.035,11.408 12.035,9.265Z" fill="#223242"/>
</svg>
