<svg width="58" height="58" viewBox="0 0 58 58" fill="none" xmlns="http://www.w3.org/2000/svg" xmlns:xlink="http://www.w3.org/1999/xlink">
<path d="M27.797,57.316C23.652,57.316 19.865,56.601 16.435,55.172C13.005,53.743 9.932,51.742 7.503,49.098C5.073,46.526 3.072,43.453 1.572,40.023C0.143,36.593 -0.572,32.805 -0.572,28.804C-0.572,24.802 0.143,21.015 1.572,17.585C3.001,14.155 4.859,11.082 7.503,8.509C9.932,5.937 13.005,3.865 16.435,2.436C19.865,1.006 23.795,0.292 27.797,0.292C31.942,0.292 35.729,1.006 39.159,2.436C42.589,3.865 45.662,5.866 48.091,8.509C50.521,11.082 52.522,14.155 54.022,17.585C55.452,21.015 56.166,24.802 56.166,28.804C56.166,32.805 55.452,36.593 54.022,40.023C52.593,43.453 50.735,46.526 48.091,49.098C45.662,51.671 42.589,53.743 39.159,55.172C35.729,56.601 31.942,57.316 27.797,57.316ZM27.797,50.384C30.941,50.384 33.728,49.813 36.301,48.669C38.73,47.526 40.945,45.954 42.803,44.024C44.518,42.024 45.948,39.88 46.948,37.093C47.948,34.52 48.377,31.591 48.377,28.732C48.377,25.731 47.948,22.944 46.948,20.372C45.948,17.799 44.661,15.441 42.803,13.44C41.088,11.439 38.945,10.01 36.301,8.795C33.871,7.652 30.941,7.08 27.797,7.08C24.653,7.08 21.866,7.652 19.294,8.795C16.864,9.939 14.649,11.511 12.791,13.44C11.076,15.441 9.647,17.585 8.646,20.372C7.646,22.944 7.217,25.874 7.217,28.732C7.217,31.734 7.646,34.52 8.646,37.093C9.647,39.665 10.933,42.024 12.791,44.024C14.506,46.025 16.65,47.454 19.294,48.669C21.866,49.813 24.581,50.384 27.797,50.384Z" fill="#223242"/>
</svg>
