<svg width="12" height="24" viewBox="0 0 12 24" fill="none" xmlns="http://www.w3.org/2000/svg" xmlns:xlink="http://www.w3.org/1999/xlink">
<path d="M6.856,0.616L6.856,4.761L10.072,4.761L10.072,7.047L6.856,7.047L6.856,17.695C6.856,18.409 6.999,18.91 7.285,19.267C7.571,19.624 8.071,19.767 8.714,19.767C9.072,19.767 9.5,19.696 10.143,19.553L10.143,21.911C9.357,22.125 8.643,22.197 7.857,22.197C6.571,22.197 5.57,21.768 4.927,20.982C4.284,20.196 3.927,19.052 3.927,17.623L3.927,6.976L0.782,6.976L0.782,4.689L3.927,4.689L3.927,0.545L6.856,0.545L6.856,0.616Z" fill="#223242"/>
</svg>
