<svg width="14" height="20" viewBox="0 0 14 20" fill="none" xmlns="http://www.w3.org/2000/svg" xmlns:xlink="http://www.w3.org/1999/xlink">
<path d="M10.278,13.409C10.278,12.623 9.992,11.98 9.349,11.551C8.777,11.122 7.706,10.765 6.205,10.408C4.704,10.122 3.561,9.693 2.703,9.265C1.846,8.836 1.203,8.264 0.774,7.692C0.345,7.049 0.131,6.335 0.131,5.477C0.131,4.048 0.703,2.905 1.917,1.904C3.132,0.904 4.633,0.475 6.491,0.475C8.42,0.475 9.992,0.975 11.207,1.976C12.422,2.976 12.993,4.262 12.993,5.835L10.064,5.835C10.064,5.048 9.706,4.334 9.063,3.762C8.349,3.191 7.491,2.905 6.491,2.905C5.419,2.905 4.561,3.119 3.99,3.619C3.418,4.12 3.061,4.691 3.061,5.477C3.061,6.192 3.347,6.692 3.918,7.049C4.49,7.407 5.49,7.764 6.919,8.05C8.349,8.407 9.563,8.764 10.492,9.193C11.421,9.622 12.064,10.194 12.493,10.837C12.922,11.48 13.136,12.266 13.136,13.195C13.136,14.695 12.493,15.982 11.278,16.911C10.064,17.84 8.492,18.268 6.491,18.268C5.133,18.268 3.918,18.054 2.846,17.554C1.774,17.054 0.988,16.41 0.345,15.481C-0.226,14.624 -0.584,13.695 -0.584,12.623L2.346,12.623C2.418,13.624 2.775,14.41 3.561,14.981C4.276,15.553 5.276,15.839 6.491,15.839C7.634,15.839 8.492,15.624 9.135,15.196C9.921,14.767 10.278,14.124 10.278,13.409Z" fill="#223242"/>
</svg>
