<svg width="40" height="40" viewBox="0 0 40 40" fill="none" xmlns="http://www.w3.org/2000/svg" xmlns:xlink="http://www.w3.org/1999/xlink">
<path d="M33.892,5.858C30.115,2.08 25.092,0 19.75,0C14.408,0 9.385,2.08 5.608,5.858C1.83,9.635 -0.25,14.658 -0.25,20C-0.25,25.342 1.83,30.365 5.608,34.142C9.385,37.92 14.408,40 19.75,40C25.092,40 30.115,37.92 33.892,34.142C37.67,30.365 39.75,25.342 39.75,20C39.75,14.658 37.67,9.635 33.892,5.858ZM8.43,33.539C9.091,27.856 13.976,23.469 19.75,23.469C22.794,23.469 25.656,24.655 27.809,26.808C29.628,28.627 30.775,31.002 31.07,33.539C28.003,36.107 24.054,37.656 19.75,37.656C15.446,37.656 11.497,36.107 8.43,33.539ZM19.75,21.055C16.401,21.055 13.675,18.33 13.675,14.981C13.675,11.631 16.401,8.906 19.75,8.906C23.099,8.906 25.825,11.631 25.825,14.981C25.825,18.33 23.099,21.055 19.75,21.055ZM33.087,31.557C32.49,29.149 31.245,26.929 29.466,25.151C28.026,23.71 26.322,22.63 24.463,21.953C26.697,20.437 28.168,17.878 28.168,14.981C28.168,10.339 24.392,6.563 19.75,6.563C15.108,6.563 11.332,10.339 11.332,14.981C11.332,17.879 12.804,20.44 15.04,21.955C13.33,22.578 11.748,23.541 10.386,24.81C8.415,26.646 7.046,28.987 6.411,31.555C3.723,28.456 2.094,24.415 2.094,20C2.094,10.264 10.014,2.344 19.75,2.344C29.486,2.344 37.406,10.264 37.406,20C37.406,24.416 35.777,28.458 33.087,31.557Z" fill="#E3E3E3"/>
</svg>
