<svg width="16" height="20" viewBox="0 0 16 20" fill="none" xmlns="http://www.w3.org/2000/svg" xmlns:xlink="http://www.w3.org/1999/xlink">
<path d="M0.043,9.193C0.043,7.478 0.4,5.977 1.043,4.691C1.686,3.334 2.615,2.333 3.83,1.619C4.973,0.904 6.331,0.547 7.832,0.547C10.19,0.547 12.048,1.333 13.477,2.976C14.906,4.62 15.621,6.764 15.621,9.408L15.621,9.622C15.621,11.265 15.335,12.766 14.692,14.124C14.049,15.481 13.12,16.482 11.976,17.196C10.762,17.911 9.404,18.34 7.903,18.34C5.545,18.34 3.687,17.554 2.258,15.91C0.829,14.267 0.114,12.123 0.114,9.479L0.114,9.193L0.043,9.193ZM2.973,9.55C2.973,11.48 3.401,12.98 4.33,14.124C5.188,15.267 6.403,15.839 7.903,15.839C9.404,15.839 10.547,15.267 11.476,14.052C12.334,12.909 12.762,11.265 12.762,9.122C12.762,7.264 12.334,5.692 11.405,4.548C10.547,3.405 9.332,2.762 7.832,2.762C6.403,2.762 5.188,3.334 4.33,4.477C3.401,5.763 2.973,7.407 2.973,9.55Z" fill="#223242"/>
</svg>
