<svg width="44" height="46" viewBox="0 0 44 46" fill="none" xmlns="http://www.w3.org/2000/svg" xmlns:xlink="http://www.w3.org/1999/xlink">
<path d="M21.733,44.751C18.478,44.751 15.569,44.194 12.871,43.068C10.173,41.941 7.821,40.369 5.915,38.351C4.009,36.333 2.437,33.981 1.311,31.282C0.184,28.583 -0.373,25.673 -0.373,22.529C-0.373,19.384 0.184,16.475 1.311,13.776C2.437,11.077 3.885,8.725 5.915,6.707C7.821,4.689 10.173,3.117 12.871,1.99C15.569,0.864 18.589,0.306 21.733,0.306C24.877,0.306 27.897,0.864 30.595,1.99C33.293,3.117 35.645,4.689 37.551,6.707C39.457,8.725 41.029,11.077 42.155,13.776C43.282,16.475 43.839,19.384 43.839,22.529C43.839,25.673 43.282,28.583 42.155,31.282C41.029,33.981 39.581,36.333 37.551,38.351C35.645,40.369 33.293,41.941 30.595,43.068C27.897,44.194 24.988,44.751 21.733,44.751ZM21.733,39.366C24.196,39.366 26.337,38.92 28.355,38.017C30.261,37.113 31.944,35.887 33.405,34.426C34.754,32.854 35.868,31.17 36.66,29.041C37.44,27.023 37.786,24.782 37.786,22.529C37.786,20.177 37.452,18.035 36.66,16.017C35.868,13.999 34.865,12.204 33.405,10.632C32.056,9.059 30.372,7.933 28.355,7.041C26.449,6.138 24.208,5.692 21.733,5.692C19.258,5.692 17.129,6.138 15.111,7.041C13.205,7.945 11.522,9.171 10.061,10.632C8.712,12.204 7.598,13.888 6.806,16.017C6.026,18.035 5.68,20.276 5.68,22.529C5.68,24.881 6.014,27.023 6.806,29.041C7.598,31.059 8.601,32.854 10.061,34.426C11.41,35.999 13.094,37.125 15.111,38.017C17.129,38.908 19.258,39.366 21.733,39.366Z" fill="#FEDD00"/>
</svg>
